<svg
  xmlns="http://www.w3.org/2000/svg"
  width="150"
  height="150"
  viewBox="0 0 100 100"
>
  <circle cx="50" cy="50" r="40" fill="#8c6dfd" />
  <path   
    d="M50 10c-22.091 0-40 17.909-40 40s17.909 40 40 40 40-17.909 40-40-17.909-40-40-40zm0 70c-19.882 0-36-16.118-36-36s16.118-36 36-36 36 16.118 36 36-16.118 36-36 36zm-10-22h20c1.104 0 2-.896 2-2s-.896-2-2-2H40c-1.104 0-2 .896-2 2s.896 2 2 2zm0-10h20c1.104 0 2-.896 2-2s-.896-2-2-2H40c-1.104 0-2 .896-2 2s.896 2 2 2zm0-10h20c1.104 0 2-.896 2-2s-.896-2-2-2H40c-1.104 0-2 .896-2 2s.896 2 2 2zm0-10h20c1.104 0-2 .896-2 2s.896 2 2 2H40c-1.104 0-2 .896-2 2s.896 2 2 2zm-8 20c-1.104 0-2 .896-2 2s.896 2 2 2h20c1.104 0 2-.896 2-2s-.896-2-2-2zm0 10c-1.104 0-2 .896-2 2s.896 2 2 2h20c1.104 0 2-.896 2-2s-.896-2-2-2zm0 10c-1.104 0-2 .896-2 2s.896 2 2 2h20c1.104 0 2-.896 2-2s-.896-2-2-2z"
    fill="#1DC071"
  />
</svg>
