<svg xmlns="http://www.w3.org/2000/svg" viewBox="0 0 100 100" id="crowdfunding"><path stroke="#1DC071" stroke-width=".529" d="M94.31 60.53a8.913 8.913 0 0 0-4.89-4.85 8.945 8.945 0 0 0-6.89.01 8.924 8.924 0 0 0-3.98 3.27l-10.23-3.98c.43-1.59.68-3.26.68-4.98 0-1.72-.25-3.39-.68-4.98l10.22-3.97a9.019 9.019 0 0 0 4.04 3.27c1.1.46 2.26.68 3.42.68 1.17 0 2.35-.23 3.47-.69 4.58-1.92 6.75-7.2 4.84-11.78a8.913 8.913 0 0 0-4.89-4.85 8.945 8.945 0 0 0-6.89.01c-3.87 1.62-6.01 5.65-5.42 9.62l-10.24 3.98a19.13 19.13 0 0 0-8.16-8.16l3.98-10.23c.43.06.87.1 1.31.1 1.17 0 2.35-.23 3.47-.69a8.913 8.913 0 0 0 4.85-4.89c1.89-4.59-.31-9.86-4.9-11.74a8.945 8.945 0 0 0-6.89.01 8.913 8.913 0 0 0-4.85 4.89c-1.65 4.01-.18 8.53 3.28 10.87l-3.98 10.23C53.39 31.25 51.72 31 50 31s-3.39.25-4.98.68l-3.97-10.22a9.019 9.019 0 0 0 3.27-4.04c.92-2.22.91-4.67-.01-6.89a8.913 8.913 0 0 0-4.89-4.85 8.945 8.945 0 0 0-6.89.01 8.913 8.913 0 0 0-4.85 4.89c-.92 2.22-.91 4.67.01 6.89a8.913 8.913 0 0 0 4.89 4.85 8.843 8.843 0 0 0 4.73.58l3.98 10.23a19.13 19.13 0 0 0-8.16 8.16L22.9 37.31c.24-1.6.05-3.24-.59-4.78a8.913 8.913 0 0 0-4.89-4.85 8.945 8.945 0 0 0-6.89.01 8.913 8.913 0 0 0-4.85 4.89c-.92 2.22-.91 4.67.01 6.89a8.913 8.913 0 0 0 4.89 4.85c1.1.46 2.26.68 3.42.68 1.17 0 2.35-.23 3.47-.69a8.924 8.924 0 0 0 3.98-3.27l10.23 3.98C31.25 46.61 31 48.28 31 50c0 1.72.25 3.39.68 4.98l-10.22 3.97a9.019 9.019 0 0 0-4.04-3.27c-4.59-1.89-9.86.31-11.74 4.9-.92 2.22-.91 4.67.01 6.89a8.913 8.913 0 0 0 4.89 4.85c1.11.46 2.27.68 3.41.68 3.54 0 6.91-2.1 8.33-5.58.63-1.52.81-3.15.58-4.73l10.23-3.98a19.13 19.13 0 0 0 8.16 8.16l-3.98 10.24a8.922 8.922 0 0 0-4.78.58 8.913 8.913 0 0 0-4.85 4.89c-.92 2.22-.91 4.67.01 6.89 1.44 3.45 4.8 5.53 8.32 5.53 1.16 0 2.33-.22 3.46-.69a8.913 8.913 0 0 0 4.85-4.89c.92-2.22.91-4.67-.01-6.89a8.992 8.992 0 0 0-3.27-3.98l3.98-10.23c1.59.43 3.26.68 4.98.68s3.39-.25 4.98-.68l3.97 10.22a9.019 9.019 0 0 0-3.27 4.04c-.92 2.22-.91 4.67.01 6.89a8.913 8.913 0 0 0 4.89 4.85c1.1.46 2.26.68 3.42.68 1.17 0 2.35-.23 3.47-.69a8.913 8.913 0 0 0 4.85-4.89c.92-2.22.91-4.67-.01-6.89a8.913 8.913 0 0 0-4.89-4.85 8.954 8.954 0 0 0-4.73-.58l-3.98-10.23a19.13 19.13 0 0 0 8.16-8.16l10.23 3.98c-.24 1.6-.05 3.24.59 4.78a8.913 8.913 0 0 0 4.89 4.85c1.1.46 2.26.68 3.42.68 1.17 0 2.35-.23 3.47-.69a8.913 8.913 0 0 0 4.85-4.89c.92-2.22.91-4.67-.01-6.89zM84.07 31.39c.62-.26 1.28-.39 1.93-.39.64 0 1.29.12 1.9.38 1.24.5 2.2 1.46 2.71 2.69a4.996 4.996 0 0 1-2.68 6.54 4.94 4.94 0 0 1-3.83.01c-1.24-.5-2.2-1.46-2.71-2.69a4.996 4.996 0 0 1 2.68-6.54zM59.38 12.1c.5-1.24 1.46-2.2 2.69-2.71C62.69 9.13 63.35 9 64 9c.64 0 1.29.12 1.9.38 2.55 1.04 3.77 3.97 2.72 6.52-.5 1.24-1.46 2.2-2.69 2.71-1.24.52-2.6.52-3.83.01-2.55-1.04-3.77-3.97-2.72-6.52zm-21.45 6.51a4.996 4.996 0 0 1-6.54-2.68 4.996 4.996 0 0 1 2.68-6.54c.63-.27 1.28-.39 1.92-.39 1.96 0 3.82 1.16 4.62 3.07a4.996 4.996 0 0 1-2.68 6.54zm-22 22a4.996 4.996 0 0 1-6.54-2.68 4.996 4.996 0 0 1 2.68-6.54c.63-.27 1.28-.39 1.92-.39 1.96 0 3.82 1.16 4.62 3.07a4.996 4.996 0 0 1-2.68 6.54zm2.69 25.29c-1.04 2.55-3.97 3.77-6.52 2.72-1.24-.5-2.2-1.46-2.71-2.69a4.94 4.94 0 0 1-.01-3.83c.79-1.93 2.66-3.1 4.63-3.1.63 0 1.27.12 1.89.38 1.24.5 2.2 1.46 2.71 2.69.52 1.24.52 2.6.01 3.83zm22 22c-.5 1.24-1.46 2.2-2.69 2.71a4.996 4.996 0 0 1-6.54-2.68 4.94 4.94 0 0 1-.01-3.83c.5-1.24 1.46-2.2 2.69-2.71.63-.27 1.28-.39 1.92-.39 1.96 0 3.82 1.16 4.62 3.07.52 1.24.52 2.6.01 3.83zm18.76-3.8c.5-1.24 1.46-2.2 2.69-2.71.62-.26 1.28-.39 1.93-.39.64 0 1.29.12 1.9.38 1.24.5 2.2 1.46 2.71 2.69.52 1.24.52 2.6.01 3.83-.5 1.24-1.46 2.2-2.69 2.71a4.94 4.94 0 0 1-3.83.01c-1.24-.5-2.2-1.46-2.71-2.69a4.94 4.94 0 0 1-.01-3.83zM50 65c-8.27 0-15-6.73-15-15s6.73-15 15-15 15 6.73 15 15-6.73 15-15 15zm40.62.9c-.5 1.24-1.46 2.2-2.69 2.71a4.94 4.94 0 0 1-3.83.01c-1.24-.5-2.2-1.46-2.71-2.69a4.94 4.94 0 0 1-.01-3.83c.5-1.24 1.46-2.2 2.69-2.71.62-.26 1.28-.39 1.93-.39.64 0 1.29.12 1.9.38 1.24.5 2.2 1.46 2.71 2.69.52 1.24.52 2.6.01 3.83zm-43.29-7.3c-.03.07-.05.14-.09.2-.37.64-1.04 1-1.73 1-.34 0-.68-.08-1-.26-3.39-1.96-5.5-5.61-5.51-9.52 0-.55.22-1.05.58-1.41.36-.37.86-.59 1.42-.59.08 0 .15.01.22.02 1 .11 1.78.95 1.78 1.98 0 2.48 1.35 4.8 3.51 6.05.89.51 1.23 1.61.82 2.53zm6.15-14.68c-2.12-1.21-4.89-1.2-7 .03-.31.18-.66.27-1 .27-.62 0-1.2-.3-1.59-.82-.05-.06-.1-.11-.14-.18-.56-.95-.23-2.18.72-2.73 3.32-1.94 7.66-1.95 11-.04a2 2 0 0 1 .74 2.73c-.04.07-.09.13-.14.19a1.98 1.98 0 0 1-2.59.55zM61 49.96V50c0 3.91-2.1 7.56-5.49 9.52a1.997 1.997 0 0 1-2.83-.93 2 2 0 0 1 .82-2.53A7.021 7.021 0 0 0 57 50c0-1.03.78-1.88 1.77-2 .08 0 .15-.02.23-.02 1.1 0 2 .88 2 1.98z"></path></svg>