<svg xmlns="http://www.w3.org/2000/svg" width="24" height="24" fill-rule="evenodd" stroke="#1DC071" stroke-linejoin="round" stroke-miterlimit="2" clip-rule="evenodd" viewBox="0 0 32 32" id="health-record"><g transform="translate(-208 -104)"><path d="M15,3L15,7C15,7.552 15.448,8 16,8C16.552,8 17,7.552 17,7L17,3C17,2.448 16.552,2 16,2C15.448,2 15,2.448 15,3Z" transform="translate(205 104)"></path><path d="M15,3L15,7C15,7.552 15.448,8 16,8C16.552,8 17,7.552 17,7L17,3C17,2.448 16.552,2 16,2C15.448,2 15,2.448 15,3Z" transform="translate(210 104)"></path><path d="M15,3L15,7C15,7.552 15.448,8 16,8C16.552,8 17,7.552 17,7L17,3C17,2.448 16.552,2 16,2C15.448,2 15,2.448 15,3Z" transform="translate(200 104)"></path><path d="M27.639,10.792L27.639,7.917C27.639,7.154 27.279,6.423 26.638,5.884C25.997,5.345 25.128,5.042 24.222,5.042C20.278,5.042 12.222,5.042 8.278,5.042C7.372,5.042 6.503,5.345 5.862,5.884C5.221,6.423 4.861,7.154 4.861,7.917C4.861,12.248 4.861,22.752 4.861,27.083C4.861,27.846 5.221,28.577 5.862,29.116C6.503,29.655 7.372,29.958 8.278,29.958C11.601,29.958 17.389,29.958 17.389,29.958C18.017,29.958 18.528,29.529 18.528,29C18.528,28.471 18.017,28.042 17.389,28.042C17.389,28.042 11.601,28.042 8.278,28.042C7.976,28.042 7.686,27.941 7.472,27.761C7.259,27.581 7.139,27.337 7.139,27.083L7.139,7.917C7.139,7.663 7.259,7.419 7.472,7.239C7.686,7.059 7.976,6.958 8.278,6.958L24.222,6.958C24.524,6.958 24.814,7.059 25.028,7.239C25.241,7.419 25.361,7.663 25.361,7.917L25.361,10.792C25.361,11.321 25.871,11.75 26.5,11.75C27.129,11.75 27.639,11.321 27.639,10.792Z" transform="matrix(.87805 0 0 1.04348 206.732 102.739)"></path><path d="M223.873,122.698C223.657,122.496 223.343,122.496 223.127,122.698C223.127,122.698 221.809,123.927 220.756,125.595C220.014,126.77 219.417,128.16 219.417,129.5C219.417,131.771 221.229,133.653 223.5,133.653C225.771,133.653 227.583,131.771 227.583,129.5C227.583,128.16 226.986,126.77 226.244,125.595C225.191,123.927 223.873,122.698 223.873,122.698ZM223.5,124.077C223.932,124.529 224.663,125.354 225.292,126.349C225.894,127.302 226.417,128.413 226.417,129.5C226.417,131.093 225.093,132.347 223.5,132.347C221.907,132.347 220.583,131.093 220.583,129.5C220.583,128.413 221.106,127.302 221.708,126.349C222.337,125.354 223.068,124.529 223.5,124.077L223.5,124.077Z" transform="matrix(1.71429 0 0 1.53061 -153.143 -70.571)"></path><path d="M223,126L223,130C223,130.552 223.448,131 224,131C224.552,131 225,130.552 225,130L225,126C225,125.448 224.552,125 224,125C223.448,125 223,125.448 223,126Z" transform="translate(6 -1)"></path><path d="M223,126L223,130C223,130.552 223.448,131 224,131C224.552,131 225,130.552 225,130L225,126C225,125.448 224.552,125 224,125C223.448,125 223,125.448 223,126Z" transform="rotate(90 227.5 130.5)"></path></g></svg>