<svg xmlns="http://www.w3.org/2000/svg" width="64" height="64" viewBox="0 0 16.933 16.933" id="medical-record"><g transform="translate(0 -280.067)"><path fill="none" stroke="#1DC071" stroke-linecap="round" stroke-linejoin="round" stroke-width=".529" d="M12.5569 285.25772v8.44907c0 .49117-.4093.88659-.91772.88659H5.29416c-.50841 0-.91771-.39542-.91771-.88659v-8.44907M6.13503 291.32554h4.67982M6.13503 292.94611H8.46668M9.60769 292.94611h1.20716"></path><path fill="none" stroke="#1DC071" stroke-linecap="round" stroke-linejoin="round" stroke-width=".529" d="m 11.786586,282.68913 h 1.451384 c 0.67744,0 1.22282,0.54537 1.22282,1.22282 v 11.33361 c 0,0.67744 -0.54538,1.22282 -1.22282,1.22282 H 8.2057 3.69537 c -0.67744,0 -1.22282,-0.54538 -1.22282,-1.22282 v -11.33361 c 0,-0.67745 0.54538,-1.22282 1.22282,-1.22282 h 1.4378754"></path><path fill="none" stroke="#1DC071" stroke-linecap="round" stroke-linejoin="round" stroke-width=".529" d="m 6.86194,280.59582 c -0.33872,0 -0.61137,0.27266 -0.61137,0.61138 v 0.78858 h -0.4079 c -0.33873,0 -0.61138,0.27266 -0.61138,0.61138 v 1.46382 c 0,0.33872 0.27265,0.61137 0.61138,0.61137 h 5.24801 c 0.33871,0 0.61137,-0.27265 0.61137,-0.61137 v -1.46382 c 0,-0.33872 -0.27266,-0.61138 -0.61137,-0.61138 h -0.40757 v -0.78858 c -2e-5,-0.33872 -0.27297,-0.61138 -0.6117,-0.61138 z"></path><path fill="none" stroke="#1DC071" stroke-width=".529" d="m 8.2938067,286.43577 c -0.32104,0 -0.57929,0.25825 -0.57929,0.57929 v 0.47698 h -0.47697 c -0.32105,0 -0.5793,0.25824 -0.5793,0.57929 v 0.34571 c 0,0.32105 0.25825,0.5793 0.5793,0.5793 h 0.47697 v 0.47697 c 0,0.32105 0.25825,0.57929 0.57929,0.57929 h 0.34572 c 0.32104,0 0.57929,-0.25824 0.57929,-0.57929 v -0.47697 h 0.47697 c 0.3210503,0 0.5793003,-0.25825 0.5793003,-0.5793 v -0.34571 c 0,-0.32105 -0.25825,-0.57929 -0.5793003,-0.57929 h -0.47697 v -0.47698 c 0,-0.32104 -0.25825,-0.57929 -0.57929,-0.57929 z"></path></g></svg>